<?xml version="1.0" encoding="utf-8"?>
<!-- Generator: Adobe Illustrator 25.2.1, SVG Export Plug-In . SVG Version: 6.00 Build 0)  -->
<svg version="1.1" id="Layer_1" xmlns="http://www.w3.org/2000/svg" xmlns:xlink="http://www.w3.org/1999/xlink" x="0px" y="0px"
	 viewBox="0 0 331.9 112.1" style="enable-background:new 0 0 331.9 112.1;" xml:space="preserve">
<style type="text/css">
	.st0{fill:#FFFFFF;}
	.st1{fill:#FFB301;}
</style>
<g>
	<path class="st0" d="M101.8,58.9h-20v18.7h-7.1v-43h30.8v6.3H81.8v12h20V58.9z"/>
	<path class="st0" d="M130.6,77.7h-4.9l-0.9-3.9h-0.4c-1.7,2.8-5.1,4.7-10,4.7c-7.2,0-11.3-4.2-11.3-9.5c0-6,4.6-9.9,13.7-9.9
		c2.9,0,5.2,0.5,6.9,1v-1c0-4.5-2.9-6.3-7.8-6.3c-4.5,0-8.1,2.2-8.1,2.2l-2.4-5.3c0,0,4.4-2.7,11.6-2.7c9.2,0,13.5,4.9,13.5,12.3
		V77.7z M123.9,66.8v-2.4c-1-0.5-2.9-1.1-6.1-1.1c-5.3,0-7.7,1.9-7.7,5.2c0,2.8,2.2,5,6.1,5C120.4,73.4,123.7,70.5,123.9,66.8z"/>
	<path class="st0" d="M136.3,70.1c0,0,4.4,2.9,10,2.9c4.1,0,5.6-1.4,5.6-3.4c0-5.7-17.9-2.7-17.9-13.8c0-5,3.8-8.9,11.7-8.9
		c8.2,0,12.6,2.6,12.6,2.6l-2.4,5.5c0,0-3.9-2.6-9.5-2.6c-3.6,0-5.5,1.1-5.5,3.2c0,5.5,18.1,2,18.1,13.7c0,4.9-3.5,9.2-12.5,9.2
		c-8.8,0-12.7-3.5-12.7-3.5L136.3,70.1z"/>
	<path class="st0" d="M167.2,47.5v-9.2h7v9.2h8.1v5.5h-8.1v15.3c0,2.6,1.2,4,3.8,4c1.9,0,3.7-1.1,3.7-1.1l2.1,5
		c-0.7,0.5-3.6,2.2-7.2,2.2c-6.6,0-9.4-4-9.4-9.9V53.1h-5.4v-5.5H167.2z"/>
	<g>
		<path class="st1" d="M215.2,58.9h-20v18.7h-7.1v-43h30.8v6.3h-23.7v12h20V58.9z"/>
		<path class="st1" d="M222.8,34.3h7v43.4h-7V34.3z"/>
		<path class="st1" d="M249.8,78.4c-8.5,0-15.4-6.1-15.4-15.6c0-9.6,6.9-15.9,15.4-15.9c8.5,0,15.5,6.3,15.5,15.9
			C265.3,72.3,258.3,78.4,249.8,78.4z M258.4,62.7c0-6.2-3.8-10.3-8.6-10.3c-4.8,0-8.6,4-8.6,10.3c0,6.2,3.8,10.1,8.6,10.1
			C254.6,72.8,258.4,68.9,258.4,62.7z"/>
		<path class="st1" d="M300.5,77.7h-6l-5.4-18.8c-0.3-0.8-0.4-1.8-0.4-2.8h-0.4c0,1-0.3,2-0.6,2.8l-5.3,18.8h-6l-11-30.1h7.4
			l5.8,19.6c0.2,0.7,0.5,1.6,0.5,2.2h0.5c0-0.6,0.4-1.7,0.5-2.4l5.4-19.4h6l5.4,19.4c0.3,0.8,0.5,1.7,0.5,2.4h0.5
			c0-0.6,0.2-1.4,0.4-2.2l6-19.6h7.2L300.5,77.7z"/>
	</g>
	<rect x="20.4" y="39.2" class="st0" width="23.8" height="14.5"/>
	<rect x="20.4" y="58.4" class="st0" width="8.9" height="14.5"/>
	<rect x="20.4" y="77.6" class="st1" width="37.3" height="14.5"/>
	<rect x="20.4" y="20.1" class="st0" width="37.3" height="14.5"/>
	<rect x="34" y="58.4" class="st1" width="23.8" height="14.5"/>
	<rect x="48.8" y="39.2" class="st1" width="8.9" height="14.5"/>
</g>
</svg>
